<svg width="23" height="33" viewBox="0 0 23 33" fill="none" xmlns="http://www.w3.org/2000/svg">
  <g filter="url(#filter0_dd)">
  <rect x="4.94629" y="1.99951" width="14" height="25" rx="7" fill="white"/>
  </g>
  <path fillRule="evenodd" clipRule="evenodd" d="M10.9463 10.4995C10.9463 10.2234 10.7224 9.99951 10.4463 9.99951C10.1701 9.99951 9.94629 10.2234 9.94629 10.4995V18.5007C9.94629 18.7769 10.1701 19.0007 10.4463 19.0007C10.7224 19.0007 10.9463 18.7769 10.9463 18.5007V10.4995ZM13.9463 10.4995C13.9463 10.2234 13.7224 9.99951 13.4463 9.99951C13.1701 9.99951 12.9463 10.2234 12.9463 10.4995V18.5007C12.9463 18.7769 13.1701 19.0007 13.4463 19.0007C13.7224 19.0007 13.9463 18.7769 13.9463 18.5007V10.4995Z" fill="#A6B0C3"/>
  <defs>
  <filter id="filter0_dd" x="0.946289" y="-0.000488281" width="22" height="33" filterUnits="userSpaceOnUse" color-interpolation-filters="sRGB">
  <feFlood flood-opacity="0" result="BackgroundImageFix"/>
  <feColorMatrix in="SourceAlpha" type="matrix" values="0 0 0 0 0 0 0 0 0 0 0 0 0 0 0 0 0 0 127 0"/>
  <feOffset dy="2"/>
  <feGaussianBlur stdDeviation="2"/>
  <feColorMatrix type="matrix" values="0 0 0 0 0.345098 0 0 0 0 0.4 0 0 0 0 0.494118 0 0 0 0.12 0"/>
  <feBlend mode="normal" in2="BackgroundImageFix" result="effect1_dropShadow"/>
  <feColorMatrix in="SourceAlpha" type="matrix" values="0 0 0 0 0 0 0 0 0 0 0 0 0 0 0 0 0 0 127 0"/>
  <feOffset dy="1"/>
  <feGaussianBlur stdDeviation="0.5"/>
  <feColorMatrix type="matrix" values="0 0 0 0 0.345098 0 0 0 0 0.4 0 0 0 0 0.494118 0 0 0 0.12 0"/>
  <feBlend mode="normal" in2="effect1_dropShadow" result="effect2_dropShadow"/>
  <feBlend mode="normal" in="SourceGraphic" in2="effect2_dropShadow" result="shape"/>
  </filter>
  </defs>
</svg>
