<svg width="26" height="26" viewBox="0 0 26 26" fill="none" xmlns="http://www.w3.org/2000/svg">
<path d="M11.615 3.32989C12.1274 2.09795 13.8726 2.09795 14.385 3.32989L16.0867 7.42131C16.3027 7.94066 16.7911 8.29552 17.3518 8.34047L21.7688 8.69458C23.0988 8.8012 23.6381 10.461 22.6248 11.329L19.2595 14.2117C18.8323 14.5776 18.6458 15.1518 18.7763 15.6989L19.8044 20.0092C20.114 21.307 18.7021 22.3328 17.5635 21.6374L13.7819 19.3276C13.3019 19.0344 12.6981 19.0344 12.2181 19.3276L8.43653 21.6374C7.29788 22.3328 5.886 21.307 6.19558 20.0092L7.22374 15.6989C7.35425 15.1518 7.16769 14.5776 6.74051 14.2117L3.3752 11.329C2.36189 10.461 2.90118 8.8012 4.23116 8.69458L8.64819 8.34047C9.20888 8.29552 9.69729 7.94066 9.9133 7.42131L11.615 3.32989Z" fill="#2196F3"/>
</svg>
